<mxfile host="app.diagrams.net" modified="2023-11-20T11:46:15.600Z" agent="Mozilla/5.0 (Windows NT 10.0; Win64; x64) AppleWebKit/537.36 (KHTML, like Gecko) Chrome/116.0.0.0 Safari/537.36 OPR/102.0.0.0" etag="7vY9K8abA7Vi6tWHhLGB" version="22.1.3" type="github">
  <diagram name="Página-1" id="hFQqNn3rGA5zaLBJcQsj">
    <mxGraphModel dx="1784" dy="819" grid="1" gridSize="10" guides="1" tooltips="1" connect="1" arrows="1" fold="1" page="1" pageScale="1" pageWidth="850" pageHeight="1100" math="0" shadow="0">
      <root>
        <mxCell id="0" />
        <mxCell id="1" parent="0" />
        <mxCell id="-k7YViS8wSyTmnmnP6un-63" style="edgeStyle=orthogonalEdgeStyle;rounded=0;orthogonalLoop=1;jettySize=auto;html=1;" edge="1" parent="1" source="c22LAd27ShyXs6EZz6V3-1" target="-k7YViS8wSyTmnmnP6un-60">
          <mxGeometry relative="1" as="geometry" />
        </mxCell>
        <mxCell id="c22LAd27ShyXs6EZz6V3-1" value="" style="rounded=0;whiteSpace=wrap;html=1;" parent="1" vertex="1">
          <mxGeometry x="240" y="60" width="80" height="40" as="geometry" />
        </mxCell>
        <mxCell id="c22LAd27ShyXs6EZz6V3-2" value="" style="rounded=0;whiteSpace=wrap;html=1;" parent="1" vertex="1">
          <mxGeometry x="240" y="370" width="80" height="50" as="geometry" />
        </mxCell>
        <mxCell id="-k7YViS8wSyTmnmnP6un-48" style="edgeStyle=orthogonalEdgeStyle;rounded=0;orthogonalLoop=1;jettySize=auto;html=1;entryX=1;entryY=0;entryDx=0;entryDy=0;" edge="1" parent="1" source="c22LAd27ShyXs6EZz6V3-3" target="c22LAd27ShyXs6EZz6V3-13">
          <mxGeometry relative="1" as="geometry" />
        </mxCell>
        <mxCell id="c22LAd27ShyXs6EZz6V3-3" value="cliente" style="text;html=1;strokeColor=none;fillColor=none;align=center;verticalAlign=middle;whiteSpace=wrap;rounded=0;" parent="1" vertex="1">
          <mxGeometry x="250" y="60" width="60" height="30" as="geometry" />
        </mxCell>
        <mxCell id="-k7YViS8wSyTmnmnP6un-68" style="edgeStyle=orthogonalEdgeStyle;rounded=0;orthogonalLoop=1;jettySize=auto;html=1;" edge="1" parent="1" source="c22LAd27ShyXs6EZz6V3-4" target="-k7YViS8wSyTmnmnP6un-65">
          <mxGeometry relative="1" as="geometry" />
        </mxCell>
        <mxCell id="c22LAd27ShyXs6EZz6V3-4" value="funcionario" style="text;html=1;strokeColor=none;fillColor=none;align=center;verticalAlign=middle;whiteSpace=wrap;rounded=0;" parent="1" vertex="1">
          <mxGeometry x="240" y="370" width="80" height="50" as="geometry" />
        </mxCell>
        <mxCell id="c22LAd27ShyXs6EZz6V3-9" value="" style="rounded=1;whiteSpace=wrap;html=1;" parent="1" vertex="1">
          <mxGeometry x="120" y="165" width="80" height="40" as="geometry" />
        </mxCell>
        <mxCell id="c22LAd27ShyXs6EZz6V3-10" value="" style="rounded=1;whiteSpace=wrap;html=1;" parent="1" vertex="1">
          <mxGeometry x="120" y="300" width="80" height="40" as="geometry" />
        </mxCell>
        <mxCell id="-k7YViS8wSyTmnmnP6un-23" style="edgeStyle=orthogonalEdgeStyle;rounded=0;orthogonalLoop=1;jettySize=auto;html=1;entryX=0;entryY=0.5;entryDx=0;entryDy=0;" edge="1" parent="1" source="c22LAd27ShyXs6EZz6V3-12" target="c22LAd27ShyXs6EZz6V3-10">
          <mxGeometry relative="1" as="geometry" />
        </mxCell>
        <mxCell id="-k7YViS8wSyTmnmnP6un-25" style="edgeStyle=orthogonalEdgeStyle;rounded=0;orthogonalLoop=1;jettySize=auto;html=1;entryX=0;entryY=0.25;entryDx=0;entryDy=0;" edge="1" parent="1" source="c22LAd27ShyXs6EZz6V3-12" target="c22LAd27ShyXs6EZz6V3-9">
          <mxGeometry relative="1" as="geometry" />
        </mxCell>
        <mxCell id="c22LAd27ShyXs6EZz6V3-12" value="home" style="text;strokeColor=none;fillColor=none;html=1;fontSize=24;fontStyle=1;verticalAlign=middle;align=center;" parent="1" vertex="1">
          <mxGeometry x="10" y="230" width="100" height="40" as="geometry" />
        </mxCell>
        <mxCell id="-k7YViS8wSyTmnmnP6un-51" style="edgeStyle=orthogonalEdgeStyle;rounded=0;orthogonalLoop=1;jettySize=auto;html=1;entryX=1;entryY=0;entryDx=0;entryDy=0;" edge="1" parent="1" source="c22LAd27ShyXs6EZz6V3-13" target="c22LAd27ShyXs6EZz6V3-4">
          <mxGeometry relative="1" as="geometry" />
        </mxCell>
        <mxCell id="c22LAd27ShyXs6EZz6V3-13" value="login" style="text;html=1;strokeColor=none;fillColor=none;align=center;verticalAlign=middle;whiteSpace=wrap;rounded=0;" parent="1" vertex="1">
          <mxGeometry x="130" y="170" width="60" height="30" as="geometry" />
        </mxCell>
        <mxCell id="-k7YViS8wSyTmnmnP6un-52" style="edgeStyle=orthogonalEdgeStyle;rounded=0;orthogonalLoop=1;jettySize=auto;html=1;entryX=0.5;entryY=0;entryDx=0;entryDy=0;" edge="1" parent="1" source="c22LAd27ShyXs6EZz6V3-14" target="c22LAd27ShyXs6EZz6V3-4">
          <mxGeometry relative="1" as="geometry" />
        </mxCell>
        <mxCell id="c22LAd27ShyXs6EZz6V3-14" value="cadastro" style="text;html=1;strokeColor=none;fillColor=none;align=center;verticalAlign=middle;whiteSpace=wrap;rounded=0;" parent="1" vertex="1">
          <mxGeometry x="130" y="305" width="60" height="30" as="geometry" />
        </mxCell>
        <mxCell id="-k7YViS8wSyTmnmnP6un-5" style="edgeStyle=orthogonalEdgeStyle;rounded=0;orthogonalLoop=1;jettySize=auto;html=1;exitX=0.5;exitY=1;exitDx=0;exitDy=0;" edge="1" parent="1">
          <mxGeometry relative="1" as="geometry">
            <mxPoint x="710" y="380" as="sourcePoint" />
            <mxPoint x="710" y="380" as="targetPoint" />
          </mxGeometry>
        </mxCell>
        <mxCell id="-k7YViS8wSyTmnmnP6un-45" value="" style="endArrow=none;html=1;rounded=0;" edge="1" parent="1">
          <mxGeometry width="50" height="50" relative="1" as="geometry">
            <mxPoint x="220" y="680" as="sourcePoint" />
            <mxPoint x="220" y="80" as="targetPoint" />
            <Array as="points" />
          </mxGeometry>
        </mxCell>
        <mxCell id="-k7YViS8wSyTmnmnP6un-53" value="acesso individual a todos os campos do site, visualização de todos os itens, pode fazer mudanças no projeto." style="rounded=0;whiteSpace=wrap;html=1;" vertex="1" parent="1">
          <mxGeometry x="425" y="500" width="120" height="160" as="geometry" />
        </mxCell>
        <mxCell id="-k7YViS8wSyTmnmnP6un-59" value="" style="edgeStyle=orthogonalEdgeStyle;rounded=0;orthogonalLoop=1;jettySize=auto;html=1;" edge="1" parent="1" source="-k7YViS8wSyTmnmnP6un-57" target="-k7YViS8wSyTmnmnP6un-53">
          <mxGeometry relative="1" as="geometry" />
        </mxCell>
        <mxCell id="-k7YViS8wSyTmnmnP6un-57" value="ADM" style="rounded=0;whiteSpace=wrap;html=1;" vertex="1" parent="1">
          <mxGeometry x="240" y="490" width="80" height="40" as="geometry" />
        </mxCell>
        <mxCell id="-k7YViS8wSyTmnmnP6un-60" value="VISUALIZAÇÕES: favoritos, carrinho de compras, historico de compras, devoluções.&amp;nbsp;" style="rounded=0;whiteSpace=wrap;html=1;" vertex="1" parent="1">
          <mxGeometry x="430" y="40" width="120" height="240" as="geometry" />
        </mxCell>
        <mxCell id="-k7YViS8wSyTmnmnP6un-62" value="COMPRA" style="text;html=1;strokeColor=none;fillColor=none;align=center;verticalAlign=middle;whiteSpace=wrap;rounded=0;" vertex="1" parent="1">
          <mxGeometry x="460" y="50" width="60" height="30" as="geometry" />
        </mxCell>
        <mxCell id="-k7YViS8wSyTmnmnP6un-64" style="edgeStyle=orthogonalEdgeStyle;rounded=0;orthogonalLoop=1;jettySize=auto;html=1;exitX=0.5;exitY=1;exitDx=0;exitDy=0;" edge="1" parent="1">
          <mxGeometry relative="1" as="geometry">
            <mxPoint x="740" y="200" as="sourcePoint" />
            <mxPoint x="740" y="200" as="targetPoint" />
          </mxGeometry>
        </mxCell>
        <mxCell id="-k7YViS8wSyTmnmnP6un-65" value="VISUALIZAÇÕES:&lt;br&gt;historico de compras do cliente, qual os produtos mais comprados pelos clientes" style="rounded=0;whiteSpace=wrap;html=1;" vertex="1" parent="1">
          <mxGeometry x="409" y="335" width="191" height="145" as="geometry" />
        </mxCell>
        <mxCell id="-k7YViS8wSyTmnmnP6un-66" value="CADASTRO DE PRODUTO" style="text;html=1;strokeColor=none;fillColor=none;align=center;verticalAlign=middle;whiteSpace=wrap;rounded=0;" vertex="1" parent="1">
          <mxGeometry x="480" y="340" width="60" height="30" as="geometry" />
        </mxCell>
        <mxCell id="-k7YViS8wSyTmnmnP6un-67" style="edgeStyle=orthogonalEdgeStyle;rounded=0;orthogonalLoop=1;jettySize=auto;html=1;exitX=0.5;exitY=1;exitDx=0;exitDy=0;" edge="1" parent="1" source="-k7YViS8wSyTmnmnP6un-65" target="-k7YViS8wSyTmnmnP6un-65">
          <mxGeometry relative="1" as="geometry" />
        </mxCell>
      </root>
    </mxGraphModel>
  </diagram>
</mxfile>
